# xmcd CD database file
#
# Track frame offsets:
#	150
#	24277
#	50177
#	94012
#	122215
#	149817
#	175609
#	198052
#	222557
#	249127
#
# Disc length: 3533 seconds
#
# Revision: 0
# Processed by: cddbd v1.4PL0 Copyright (c) Steve Scherf et al.
# Submitted via: CDex 1.50beta9
#
DISCID=8d0dcb0a
DTITLE=Jeff Ciampa - Signs of Life
DYEAR=1997
DGENRE=Jazz
TTITLE0=Samba USA
TTITLE1=Habanero Nights
TTITLE2=Somewhere, Sometime
TTITLE3=Ice Rain
TTITLE4=Spring Song
TTITLE5=Signs of Life
TTITLE6=I´ve heard it before
TTITLE7=The Sabo´nim
TTITLE8=Water Dance
TTITLE9=No Way Out
EXTD=YEAR: 1997
EXTT0=
EXTT1=
EXTT2=
EXTT3=
EXTT4=
EXTT5=
EXTT6=
EXTT7=
EXTT8=
EXTT9=
PLAYORDER=
